<svg width="80" height="80" fill="none" xmlns="http://www.w3.org/2000/svg"><path d="M.248 17.777C1.258 13.324 5.24 10 10 10h60c4.759 0 8.741 3.324 9.752 7.777L40 42.07.248 17.777ZM0 23.485v35.518l29.016-17.786L0 23.485Zm33.807 20.66L.959 64.28A10.001 10.001 0 0 0 10 70h60c3.992 0 7.437-2.339 9.04-5.72L46.194 44.144 40 47.93l-6.193-3.785Zm17.177-2.928L80 59.003V23.485L50.984 41.217Z" fill="url(#a)"/><defs><linearGradient id="a" x1="40" y1="10" x2="40" y2="70" gradientUnits="userSpaceOnUse"><stop stop-color="#FFB845"/><stop offset="1" stop-color="#F2AB38"/></linearGradient></defs></svg>