<svg width="48" height="48" fill="none" xmlns="http://www.w3.org/2000/svg"><path d="m16.15 37.75 7.85-4.7 7.85 4.75-2.1-8.9 6.9-6-9.1-.8L24 13.7l-3.55 8.35-9.1.8 6.9 6-2.1 8.9ZM11.65 44l3.25-14.05L4 20.5l14.4-1.25L24 6l5.6 13.25L44 20.5l-10.9 9.45L36.35 44 24 36.55 11.65 44Z" fill="url(#a)"/><path d="M24 34V13l-3.5 9-9 1 6.5 6-2 9 8-4Z" fill="url(#b)" stroke="url(#c)"/><defs><linearGradient id="a" x1="24" y1="6" x2="24" y2="44" gradientUnits="userSpaceOnUse"><stop stop-color="#FFB845"/><stop offset="1" stop-color="#F2AB38"/></linearGradient><linearGradient id="b" x1="17.75" y1="13" x2="17.75" y2="38" gradientUnits="userSpaceOnUse"><stop stop-color="#FFB845"/><stop offset="1" stop-color="#F2AB38"/></linearGradient><linearGradient id="c" x1="17.75" y1="13" x2="17.75" y2="38" gradientUnits="userSpaceOnUse"><stop stop-color="#FFB845"/><stop offset="1" stop-color="#F2AB38"/></linearGradient></defs></svg>