<svg width="48" height="48" viewBox="0 0 48 48" fill="none" xmlns="http://www.w3.org/2000/svg">
<path d="M16.15 37.75L24 33.05L31.85 37.8L29.75 28.9L36.65 22.9L27.55 22.1L24 13.7L20.45 22.05L11.35 22.85L18.25 28.85L16.15 37.75ZM11.65 44L14.9 29.95L4 20.5L18.4 19.25L24 6L29.6 19.25L44 20.5L33.1 29.95L36.35 44L24 36.55L11.65 44Z" fill="url(#paint0_linear_84_143)"/>
<path d="M24 34V13L20.5 22L11.5 23L18 29L16 38L24 34Z" fill="url(#paint1_linear_84_143)" stroke="url(#paint2_linear_84_143)"/>
<defs>
<linearGradient id="paint0_linear_84_143" x1="24" y1="6" x2="24" y2="44" gradientUnits="userSpaceOnUse">
<stop stop-color="#FFB845"/>
<stop offset="1" stop-color="#F2AB38"/>
</linearGradient>
<linearGradient id="paint1_linear_84_143" x1="17.75" y1="13" x2="17.75" y2="38" gradientUnits="userSpaceOnUse">
<stop stop-color="#FFB845"/>
<stop offset="1" stop-color="#F2AB38"/>
</linearGradient>
<linearGradient id="paint2_linear_84_143" x1="17.75" y1="13" x2="17.75" y2="38" gradientUnits="userSpaceOnUse">
<stop stop-color="#FFB845"/>
<stop offset="1" stop-color="#F2AB38"/>
</linearGradient>
</defs>
</svg>
