<svg width="32" height="32" fill="none" xmlns="http://www.w3.org/2000/svg"><path d="M32 16c0 8.837-7.163 16-16 16S0 24.837 0 16 7.163 0 16 0s16 7.163 16 16Z" fill="#081922"/><path d="M6.224 21.33c0 .397.03.686.092.869.06.167.175.281.342.342.183.061.472.091.868.091h.776c1.188 0 2.215-.312 3.083-.936.868-.64 1.446-1.5 1.736-2.58 0-.03.03-.046.091-.046.03 0 .06.015.091.046.046.015.069.03.069.046-.137 1.507-.206 2.763-.206 3.767 0 .122-.03.213-.091.274-.046.046-.13.069-.251.069H2.046c-.03 0-.046-.046-.046-.137 0-.091.015-.137.046-.137.487 0 .837-.038 1.05-.114a.686.686 0 0 0 .457-.434c.091-.229.137-.571.137-1.028V10.85c0-.457-.046-.792-.137-1.005a.686.686 0 0 0-.457-.434c-.228-.091-.578-.137-1.05-.137-.03 0-.046-.046-.046-.137C2 9.046 2.015 9 2.046 9l1.164.023c.7.03 1.279.046 1.736.046.456 0 1.035-.016 1.735-.046L7.846 9c.045 0 .068.046.068.137 0 .091-.023.137-.068.137-.472 0-.822.046-1.05.137a.686.686 0 0 0-.457.457c-.076.213-.115.548-.115 1.005V21.33ZM29.954 9c.03 0 .046.046.046.137 0 .091-.015.137-.046.137-.609 0-1.088.244-1.438.73-.35.473-.525 1.112-.525 1.919v11.691c0 .046-.038.076-.115.092-.06.015-.106.007-.137-.023L17.03 11.489v8.883c0 .807.168 1.446.503 1.918.335.472.8.708 1.393.708.03 0 .046.046.046.137 0 .091-.015.137-.046.137-.426 0-.753-.008-.982-.023l-1.233-.023-1.416.023c-.258.015-.632.023-1.119.023-.045 0-.068-.046-.068-.137 0-.091.023-.137.068-.137.67 0 1.195-.236 1.576-.708.396-.472.594-1.111.594-1.918v-9.66c-.503-.547-.936-.92-1.302-1.118a2.078 2.078 0 0 0-1.096-.32c-.03 0-.046-.046-.046-.137 0-.091.016-.137.046-.137l.96.023c.197.015.486.023.867.023l1.735-.023c.213-.015.472-.023.777-.023.121 0 .213.03.274.091.06.061.167.19.32.389.258.35.44.586.547.707l7.901 9.112v-7.376c0-.822-.167-1.47-.502-1.941-.335-.472-.8-.708-1.393-.708-.03 0-.046-.046-.046-.137 0-.091.016-.137.046-.137l.982.023c.487.03.898.046 1.233.046.305 0 .73-.016 1.279-.046L29.954 9Z" fill="#FFB845"/></svg>