<svg width="500" height="500" fill="none" xmlns="http://www.w3.org/2000/svg"><g clip-path="url(#a)"><mask id="b" style="mask-type:alpha" maskUnits="userSpaceOnUse" x="0" y="0" width="501" height="500"><path d="M250 500C111.811 500 0 388.023 0 250 0 111.811 111.977 0 250 0c138.189 0 250 111.977 250 250 .165 138.189-111.811 250-250 250Z" fill="#B5E2DC"/></mask><g mask="url(#b)"><path d="M250 500C111.811 500 0 388.023 0 250 0 111.811 111.977 0 250 0c138.189 0 250 111.977 250 250 .165 138.189-111.811 250-250 250Z" fill="#B5E2DC"/><path d="M397.815 410.438c-1.224.874-2.623 1.748-3.846 2.623-1.399.874-2.623 1.748-4.021 2.447-1.224.699-2.273 1.399-3.497 2.098-.175.175-.349.175-.524.35-4.021 2.447-8.217 4.72-12.413 6.818a39.624 39.624 0 0 1-3.846 1.923s-.175.175-.35.175l-4.196 2.098c-2.797 1.398-5.769 2.622-8.566 3.846-1.399.699-2.972 1.224-4.371 1.748-1.398.525-2.972 1.224-4.37 1.748-1.399.525-2.972 1.224-4.371 1.749h-.175c-1.398.524-2.972 1.049-4.37 1.573-3.147 1.049-6.469 2.098-9.616 3.147-1.049.35-2.272.699-3.321 1.049a104.64 104.64 0 0 1-9.966 2.622c-1.224.35-2.447.525-3.846.874-3.147.7-6.468 1.399-9.615 2.098-.699.175-1.224.175-1.923.35-1.049.175-2.273.35-3.322.524-1.573.175-2.972.525-4.545.7-.699.174-1.399.174-2.098.349-.874.175-1.924.35-2.973.35-2.796.35-5.769.699-8.566 1.049-.874.175-1.923.175-2.797.35h-.175c-1.224.174-2.448.174-3.671.349-1.224.175-2.448.175-3.672.175-.699 0-1.573.175-2.272.175-1.399 0-2.623.175-3.847.175-1.748 0-3.321.174-5.069.174h-8.742c-73.601-1.048-140.034-32.342-187.237-81.993 0 0 0-.174-.175-.174 5.42-10.665 25.524-29.895 46.504-45.805 26.573-20.104 64.16-32.517 64.16-32.517s24.651-4.021 116.084 15.035c69.756 14.685 99.476 74.301 109.616 101.748Z" fill="#FEE4BF"/><path d="M307.605 357.117c-3.671 18.007-27.448 28.671-67.483 12.587-49.126-19.931-68.007-76.049-68.007-76.049-2.622-40.21-8.741-74.65-8.741-74.65 56.818-4.895 123.951 61.538 123.951 61.538l7.692 32.867c.699 2.797 2.099 5.245 4.196 6.993 3.672 6.294 10.84 25.175 8.392 36.714Z" fill="#FEE4BF"/><path d="M299.213 320.578c-33.391-1.748-58.042-6.643-84.44-54.021 22.377 19.755 48.776 27.273 76.573 30.769l3.672 16.084c.698 2.972 2.097 5.42 4.195 7.168Z" fill="#EFBD9C"/><path d="M368.269 109.914c3.147 14.685 4.721 26.573-3.846 65.734-8.566 39.161 7.867 78.322-33.392 114.161-27.797 24.126-76.398 28.671-115.21 2.273-13.112-8.917-25.174-21.329-34.965-37.588-7.692-12.762-16.608-24.825-26.573-35.839-13.811-15.035-30.42-45.28-22.203-98.776 13.287-87.063 99.476-97.028 150.35-87.413 50.874 9.615 77.273 38.637 85.839 77.448Z" fill="#FEE4BF"/><path d="M200.961 178.27s-5.419-26.224-30.944-23.077c-22.028 2.797-29.72 55.595 20.28 70.28" fill="#FEE4BF"/><path d="M188.724 201.522s-6.294-4.021-5.594-11.014c1.048-8.217 0-13.287-3.847-14.86-9.615-4.021-11.538 7.168-11.188 8.566" stroke="#423232" stroke-width="3" stroke-miterlimit="10" stroke-linecap="round" stroke-linejoin="round"/><path d="M322.115 218.48s6.643.35 12.937-7.168c3.497-4.195 6.469-9.44 4.546-11.014-1.924-1.748-33.566 3.147-35.664 7.343-2.098 4.196 10.139 10.839 18.181 10.839Z" fill="#EFBD9C"/><path d="M327.36 159.739s.349 16.608 11.014 35.14c4.72 8.217-2.447 21.678-18.007 23.951" stroke="#423232" stroke-width="3" stroke-miterlimit="10" stroke-linecap="round" stroke-linejoin="round"/><path d="M354.807 256.767c0 .175 0 .175 0 0-.174.175-.174.175 0 0-4.37 11.364-11.538 22.203-23.776 32.867-27.797 24.126-76.398 28.671-115.209 2.273a112.407 112.407 0 0 1-12.588-9.965 75.491 75.491 0 0 1-7.343-11.014c-12.587-23.602-7.168-45.63-7.168-45.63s7.168.175 15.735 16.958c7.168 13.986 34.79 13.462 46.154-12.762 12.587-29.196 44.056-16.433 51.224-13.636 7.168 2.797 18.356 2.797 18.356 2.797 28.322-.35 19.755 18.706 22.727 29.196 4.371 14.335 11.888 8.916 11.888 8.916Z" fill="#423232"/><path d="M411.266 369.322c-24.483-29.088-62.414-41.168-83.276-48.32-1.724-7.948-5.001-16.69-10.173-25.114-7.931 4.45-17.068 7.788-26.551 9.537l1.379 5.245c.69 2.543 4.138 14.305-1.207 29.405-4.483 12.716-22.586 18.438-53.276 5.563-59.827-24.954-66.724-53.088-66.724-53.088-1.034-15.259-2.758-29.564-4.31-41.167-18.621 3.814-40.173 11.603-51.897 27.974-14.483 20.028-19.828 40.373-18.448 56.586-25.172 14.782-64.138 37.193-76.897 77.248-16.552 52.135-13.793 84.083-13.793 84.083h445.518c-.518.159-7.069-88.374-40.345-127.952Z" fill="#FFB845"/><path d="M144.886 317.187s10.517 37.67 56.551 63.738M327.818 321.001s12.241 48.797-14.483 71.209M244.714 384.74s-8.965 24.159-6.552 40.849M299.714 383.309s6.724 13.51 11.552 34.968M96.438 336.102s14.138 53.088 98.276 68.665" stroke="#423232" stroke-width="3" stroke-miterlimit="10" stroke-linecap="round" stroke-linejoin="round"/><path d="m239.714 429.245-7.586-.636c-2.759-.318-4.828-2.702-4.31-5.245l2.586-11.921c.689-3.338 4.138-5.722 7.758-5.246 3.621.318 6.552 3.179 6.552 6.676l.172 12.239c0 2.384-2.413 4.451-5.172 4.133ZM318.852 421.933l-7.241 2.384c-2.759.954-5.69-.635-6.207-3.179l-3.104-11.762c-.862-3.338 1.035-6.676 4.656-7.947 3.448-1.113 7.413.318 8.965 3.338l5.69 10.967c1.207 2.384-.001 5.245-2.759 6.199Z" fill="#fff"/><path d="M90.576 497.433s-1.552-35.445-6.724-44.982M394.886 418.277s9.655 49.91 5.862 79.156M367.128 466.279s-25.517 3.497-47.931 2.544" stroke="#544D4D" stroke-width="3" stroke-miterlimit="10" stroke-linecap="round" stroke-linejoin="round"/><path d="M294.842 196.458h-40.733a19.175 19.175 0 0 1-19.231-19.231v-16.608a19.176 19.176 0 0 1 19.231-19.231h40.733a19.176 19.176 0 0 1 19.231 19.231v16.608c0 10.665-8.741 19.231-19.231 19.231ZM365.122 141.388h-20.105c-6.993 0-12.762 5.77-12.762 12.763v15.209c2.448 8.742 5.944 17.133 11.189 24.651.525 0 1.049.175 1.573.175h20.105c6.993 0 12.762-5.77 12.762-12.763v-27.272c.175-7.168-5.594-12.763-12.762-12.763Z" stroke="#423232" stroke-width="3" stroke-miterlimit="10" stroke-linecap="round" stroke-linejoin="round"/><path d="M314.073 157.297c5.944-.699 13.462-1.223 19.755-.524M234.878 158.521l-40.56 1.398" stroke="#423232" stroke-width="3" stroke-miterlimit="10" stroke-linecap="round" stroke-linejoin="round"/><path d="M380.604 74.299c-12.413 44.93-47.902 36.014-82.168 25.175-120.804-38.287-99.999 78.671-101.573 76.573-3.846-7.343-12.063-16.434-27.623-14.51-20.279 2.622-28.496 47.552 9.441 66.083-.874 8.042-6.643 14.861-13.287 19.756-17.832-15.035-45.454-44.056-55.769-86.014-3.846-15.385-2.273-28.147-.699-38.112 5.07-30.944 24.3-37.413 24.3-37.413.7-32.692 34.791-68.706 92.133-67.482 57.518.874 167.658 11.014 155.245 55.944Z" fill="#423232"/><path d="M382.003 128.32c-1.749 11.363-6.644 20.105-13.462 26.573 2.622-19.056 1.224-28.147-1.049-38.811-4.895-21.853-15.384-40.734-32.867-54.72 8.741-.7 17.657 1.224 25.699 6.293 0 0 11.539 8.042 15.909 33.917 1.399 7.517 7.343 15.559 5.77 26.748Z" fill="#423232"/><path d="M239.346 18.53s66.433-25.875 89.86-17.308c19.405 7.168 12.412 27.098 12.412 27.098s33.217-8.392 51.224 13.286c18.007 21.679-2.797 49.826-14.685 60.14 0 0 18.706 4.896 16.783 20.805-2.273 19.93-26.573 32.167-26.573 32.167s8.391-17.132 7.168-33.566c-1.224-16.434.699-28.147-11.364-40.035-12.063-12.063-40.734-.7-71.678-16.084-30.77-15.385-53.147-46.504-53.147-46.504Z" fill="#423232"/><path d="M181.58 179.672s-13.986-2.098-12.937 17.483c.524 9.965.524 15.384.349 18.181-.175 1.923 1.049 3.672 2.797 4.371 2.098.874 4.371 0 5.42-2.098 1.573-2.797 3.322-6.643 3.322-9.79 0-5.245 5.594-9.965 5.594-9.965s-5.07-4.371-4.545-18.182Z" fill="#fff"/><path d="M223.888 516.735c-1.399-1.575-56.294-95.455-48.077-130.769 5.594-24.301-1.748-52.273-8.217-76.923-2.622-10.14-5.07-19.581-6.468-27.972-2.448-14.511-.7-28.322 5.244-41.084 6.469-14.336 5.42-26.749 5.42-26.923l3.496-.35c0 .525 1.049 13.636-5.769 28.671-5.594 12.063-7.168 25.35-4.895 39.161 1.399 8.217 3.846 17.658 6.469 27.797 6.643 25 13.986 53.497 8.216 78.672-7.692 33.566 47.028 127.445 47.378 127.795l-2.797 1.925Z" fill="#fff"/><path d="M169.168 207.294c.175 3.846 0 6.469 0 8.042-.175 1.923 1.049 3.672 2.797 4.371 2.098.874 4.371 0 5.42-2.098 1.573-2.797 3.321-6.643 3.321-9.79v-.7c-3.671 1.399-7.867 2.448-11.538.175Z" fill="#E5E5E5"/><path d="M333.678 323.553c-1.224 8.042-1.399 20.804-1.748 35.664-.525 28.672-17.483 140.385-25.7 158.043l-3.147-1.4c7.867-17.132 24.826-128.321 25.35-156.643.35-14.86.524-27.797 1.748-36.188 2.622-17.658.7-30.944-.349-36.539.524-.524 1.048-.874 1.573-1.398.524-.35.874-.875 1.398-1.224 1.049 4.545 4.022 19.056.875 39.685Z" fill="#fff"/><path d="M278.36 162.912v.349l-.175 4.895c-.175 4.196-3.671 7.343-7.867 7.168-4.196-.175-7.343-3.846-6.993-7.867l.175-4.895c0-.874.35-1.923.699-2.622l13.986.699c0 .699.175 1.398.175 2.273ZM351.435 166.758l-.174 4.545c-.175 3.846-3.497 6.818-7.343 6.644-3.846-.175-6.818-3.497-6.643-7.343l.174-4.546c0-.874.175-1.748.525-2.447l13.112.524c.349.875.349 1.749.349 2.623ZM295.842 138.96c3.846.524 6.818-3.496 5.419-7.343-.699-2.098-1.923-4.021-3.846-5.244-5.944-3.672-28.147-4.021-39.86 4.37-10.315 7.693 20.804 5.769 38.287 8.217ZM344.267 140.884c-3.146 0-5.069-4.021-3.496-7.343.875-1.748 2.098-3.322 3.847-4.196 5.419-2.622 19.93-1.049 26.398 7.867 5.769 7.867-12.238 3.497-26.749 3.672Z" fill="#423232"/><path d="m289.723 160.988-11.714-.524-13.986-.525-3.147-.174M358.779 164.485l-7.693-.35-13.112-.524h-.524" stroke="#423232" stroke-width="3" stroke-miterlimit="10" stroke-linecap="round" stroke-linejoin="round"/><path d="M302.593 246.372c-7.627 4.507-19.76 1.733-28.6-4.333" stroke="#FEE4BF" stroke-width="2.468" stroke-miterlimit="10" stroke-linecap="round" stroke-linejoin="round"/></g></g><defs><clipPath id="a"><path fill="#fff" d="M0 0h500v500H0z"/></clipPath></defs></svg>