<svg width="80" height="80" fill="none" xmlns="http://www.w3.org/2000/svg"><path d="M0 5.73C0 2.568 2.63 0 5.875 0h68.25C77.37 0 80 2.567 80 5.73v68.54c0 3.165-2.63 5.73-5.875 5.73H5.875C2.63 80 0 77.434 0 74.27V5.73Zm24.717 61.238V30.844H12.71v36.124h12.007Zm-6.004-41.056c4.187 0 6.793-2.774 6.793-6.241-.078-3.545-2.606-6.242-6.713-6.242S12 16.126 12 19.671c0 3.467 2.606 6.24 6.635 6.24h.078Zm24.544 41.056V46.795c0-1.08.078-2.158.395-2.93.868-2.157 2.844-4.392 6.16-4.392 4.346 0 6.084 3.313 6.084 8.17v19.325h12.006V46.255c0-11.096-5.924-16.259-13.824-16.259-6.37 0-9.225 3.5-10.82 5.962v.125h-.08l.08-.125v-5.114H31.25c.158 3.39 0 36.124 0 36.124h12.007Z" fill="url(#a)"/><defs><linearGradient id="a" x1="40" y1="0" x2="40" y2="80" gradientUnits="userSpaceOnUse"><stop stop-color="#FFB845"/><stop offset="1" stop-color="#F2AB38"/></linearGradient></defs></svg>