<svg width="237" height="28" viewBox="0 0 237 28" fill="none" xmlns="http://www.w3.org/2000/svg">
<path d="M7.946 23.43C7.946 24.158 8.002 24.69 8.114 25.026C8.226 25.334 8.43599 25.544 8.74399 25.656C9.07999 25.768 9.612 25.824 10.34 25.824H11.768C13.952 25.824 15.842 25.25 17.438 24.102C19.034 22.926 20.098 21.344 20.63 19.356C20.63 19.3 20.686 19.272 20.798 19.272C20.854 19.272 20.91 19.3 20.966 19.356C21.05 19.384 21.092 19.412 21.092 19.44C20.84 22.212 20.714 24.522 20.714 26.37C20.714 26.594 20.658 26.762 20.546 26.874C20.462 26.958 20.308 27 20.084 27H0.259995C0.203995 27 0.175995 26.916 0.175995 26.748C0.175995 26.58 0.203995 26.496 0.259995 26.496C1.15599 26.496 1.8 26.426 2.192 26.286C2.612 26.146 2.89199 25.88 3.03199 25.488C3.19999 25.068 3.284 24.438 3.284 23.598V4.152C3.284 3.312 3.19999 2.696 3.03199 2.304C2.89199 1.912 2.612 1.646 2.192 1.506C1.772 1.338 1.12799 1.254 0.259995 1.254C0.203995 1.254 0.175995 1.17 0.175995 1.002C0.175995 0.834 0.203995 0.75 0.259995 0.75L2.40199 0.791999C3.69 0.847999 4.754 0.875998 5.594 0.875998C6.434 0.875998 7.498 0.847999 8.786 0.791999L10.928 0.75C11.012 0.75 11.054 0.834 11.054 1.002C11.054 1.17 11.012 1.254 10.928 1.254C10.06 1.254 9.416 1.338 8.996 1.506C8.576 1.646 8.296 1.926 8.156 2.346C8.016 2.738 7.946 3.354 7.946 4.194V23.43Z" fill="#FFB845"/>
<path d="M42.8447 24.27C42.9287 24.27 42.9987 24.34 43.0547 24.48C43.1387 24.62 43.1387 24.704 43.0547 24.732L37.2587 27.546C37.2027 27.574 37.1327 27.588 37.0487 27.588C36.7687 27.588 36.5167 27.294 36.2927 26.706C36.0967 26.09 35.9847 25.264 35.9567 24.228C34.1087 26.412 32.1067 27.504 29.9507 27.504C28.4107 27.504 27.1927 27.028 26.2967 26.076C25.4287 25.096 24.9947 23.822 24.9947 22.254V16.08C24.9947 14.26 24.5607 13.35 23.6927 13.35C23.3847 13.35 23.0347 13.448 22.6427 13.644H22.6007C22.4887 13.644 22.4047 13.574 22.3487 13.434C22.2927 13.266 22.3067 13.168 22.3907 13.14L28.0187 10.452L28.2287 10.41C28.3687 10.41 28.5087 10.48 28.6487 10.62C28.8167 10.732 28.9007 10.844 28.9007 10.956V20.238C28.9007 23.262 30.0627 24.774 32.3867 24.774C33.0027 24.774 33.6187 24.648 34.2347 24.396C34.8787 24.116 35.4527 23.738 35.9567 23.262V16.08C35.9567 14.26 35.5227 13.35 34.6547 13.35C34.3467 13.35 33.9827 13.448 33.5627 13.644H33.5207C33.4367 13.644 33.3667 13.574 33.3107 13.434C33.2547 13.266 33.2687 13.168 33.3527 13.14L38.9807 10.452C39.0367 10.424 39.1067 10.41 39.1907 10.41C39.3307 10.41 39.4707 10.48 39.6107 10.62C39.7787 10.732 39.8627 10.844 39.8627 10.956V22.128C39.8627 23.08 39.9467 23.752 40.1147 24.144C40.3107 24.536 40.6187 24.732 41.0387 24.732C41.4307 24.732 42.0047 24.578 42.7607 24.27H42.8447Z" fill="white"/>
<path d="M52.9198 27.504C51.0718 27.504 49.5038 27.112 48.2158 26.328C46.9558 25.516 46.0038 24.48 45.3598 23.22C44.7438 21.932 44.4358 20.588 44.4358 19.188C44.4358 17.424 44.9258 15.884 45.9058 14.568C46.8858 13.224 48.1318 12.202 49.6438 11.502C51.1838 10.774 52.7518 10.41 54.3478 10.41C55.6918 10.41 56.8958 10.69 57.9598 11.25C59.0518 11.81 59.5978 12.58 59.5978 13.56C59.5978 14.092 59.3878 14.554 58.9678 14.946C58.5758 15.31 58.0158 15.492 57.2878 15.492C56.6158 15.492 56.0838 15.324 55.6918 14.988C55.2998 14.624 54.9778 14.078 54.7258 13.35C54.4738 12.566 54.2218 12.034 53.9698 11.754C53.7458 11.446 53.3258 11.292 52.7098 11.292C51.5058 11.292 50.5398 11.894 49.8118 13.098C49.1118 14.274 48.7618 15.842 48.7618 17.802C48.7618 20.126 49.2798 21.988 50.3158 23.388C51.3518 24.76 53.0038 25.446 55.2718 25.446C56.0278 25.446 56.6718 25.362 57.2038 25.194C57.7638 25.026 58.4638 24.746 59.3038 24.354H59.3458C59.4298 24.354 59.4998 24.396 59.5558 24.48C59.6398 24.564 59.6538 24.634 59.5978 24.69C58.5618 25.642 57.5258 26.356 56.4898 26.832C55.4538 27.28 54.2638 27.504 52.9198 27.504Z" fill="white"/>
<path d="M78.4496 24.732C78.5616 24.732 78.6316 24.802 78.6596 24.942C78.7156 25.054 78.6876 25.138 78.5756 25.194L74.2496 27.252C74.1376 27.308 73.9976 27.336 73.8296 27.336C73.3816 27.336 72.9476 27.098 72.5276 26.622C72.1356 26.146 71.8556 25.502 71.6876 24.69L69.8816 25.95C69.2376 26.426 68.6356 26.776 68.0756 27C67.5156 27.196 66.8856 27.294 66.1856 27.294C64.9816 27.294 64.0716 27.028 63.4556 26.496C62.8396 25.964 62.5316 25.222 62.5316 24.27C62.5316 23.514 62.7136 22.912 63.0776 22.464C63.4416 21.988 63.8896 21.624 64.4216 21.372C64.9816 21.092 65.7516 20.784 66.7316 20.448L67.7816 20.07L71.5616 18.684V16.29C71.5616 14.498 71.4076 13.196 71.0996 12.384C70.8196 11.572 70.3296 11.166 69.6296 11.166C68.1456 11.166 67.3056 12.314 67.1096 14.61C67.0256 15.45 66.7736 16.052 66.3536 16.416C65.9616 16.78 65.4016 16.962 64.6736 16.962C63.9736 16.962 63.4556 16.822 63.1196 16.542C62.8116 16.234 62.6576 15.842 62.6576 15.366C62.6576 14.526 63.1476 13.728 64.1276 12.972C65.1076 12.188 66.2836 11.558 67.6556 11.082C69.0556 10.606 70.2876 10.368 71.3516 10.368C72.5836 10.368 73.5776 10.76 74.3336 11.544C75.1176 12.3 75.5096 13.462 75.5096 15.03V22.464C75.5096 23.276 75.6496 23.906 75.9296 24.354C76.2376 24.802 76.6576 25.026 77.1896 25.026C77.5816 25.026 77.9876 24.928 78.4076 24.732H78.4496ZM71.6036 23.976C71.5756 23.864 71.5616 23.682 71.5616 23.43V19.398L69.7556 20.238C69.6716 20.266 69.3916 20.378 68.9156 20.574C68.4396 20.742 68.0196 21.036 67.6556 21.456C67.3196 21.876 67.1516 22.366 67.1516 22.926C67.1516 23.598 67.3616 24.13 67.7816 24.522C68.2296 24.886 68.7336 25.068 69.2936 25.068C69.7416 25.068 70.2036 24.914 70.6796 24.606L71.6036 23.976Z" fill="white"/>
<path d="M83.4853 12.804C83.4853 13.616 83.7653 14.316 84.3253 14.904C84.9133 15.492 85.7533 16.108 86.8453 16.752C87.9093 17.368 88.6933 17.858 89.1973 18.222C89.7293 18.558 90.2053 19.048 90.6253 19.692C91.0453 20.308 91.2553 21.064 91.2553 21.96C91.2553 22.912 91.0173 23.808 90.5413 24.648C90.0653 25.488 89.3513 26.174 88.3993 26.706C87.4473 27.21 86.3133 27.462 84.9973 27.462C83.4573 27.462 82.0013 27.084 80.6293 26.328C80.4613 26.16 80.3773 25.992 80.3773 25.824L80.2933 21.666C80.2933 21.582 80.3633 21.54 80.5033 21.54C80.6713 21.512 80.7693 21.526 80.7973 21.582C81.2453 22.982 81.9873 24.172 83.0233 25.152C84.0593 26.132 85.1093 26.622 86.1733 26.622C86.7613 26.622 87.2233 26.44 87.5593 26.076C87.9233 25.712 88.1053 25.18 88.1053 24.48C88.1053 23.444 87.8113 22.632 87.2233 22.044C86.6353 21.428 85.7673 20.798 84.6193 20.154C83.6393 19.622 82.8973 19.188 82.3933 18.852C81.8893 18.516 81.4413 18.04 81.0493 17.424C80.6573 16.808 80.4613 16.052 80.4613 15.156C80.4613 13.504 81.0493 12.3 82.2253 11.544C83.4013 10.76 84.8433 10.368 86.5513 10.368C87.1953 10.368 87.7693 10.41 88.2733 10.494C88.8053 10.578 89.3933 10.746 90.0373 10.998C90.2893 11.082 90.4153 11.236 90.4153 11.46C90.4153 12.16 90.4013 12.706 90.3733 13.098L90.3313 15.198C90.3313 15.282 90.2473 15.324 90.0793 15.324C89.9113 15.324 89.8273 15.282 89.8273 15.198C89.8273 14.666 89.6033 14.092 89.1553 13.476C88.7073 12.832 88.1193 12.286 87.3913 11.838C86.6913 11.39 85.9633 11.166 85.2073 11.166C84.0593 11.166 83.4853 11.712 83.4853 12.804Z" fill="white"/>
<path d="M132.889 0.75C132.945 0.75 132.973 0.834 132.973 1.002C132.973 1.17 132.945 1.254 132.889 1.254C131.769 1.254 130.887 1.702 130.243 2.598C129.599 3.466 129.277 4.642 129.277 6.126V27.63C129.277 27.714 129.207 27.77 129.067 27.798C128.955 27.826 128.871 27.812 128.815 27.756L109.117 5.328V21.666C109.117 23.15 109.425 24.326 110.041 25.194C110.657 26.062 111.511 26.496 112.603 26.496C112.659 26.496 112.687 26.58 112.687 26.748C112.687 26.916 112.659 27 112.603 27C111.819 27 111.217 26.986 110.797 26.958L108.529 26.916L105.925 26.958C105.449 26.986 104.763 27 103.867 27C103.783 27 103.741 26.916 103.741 26.748C103.741 26.58 103.783 26.496 103.867 26.496C105.099 26.496 106.065 26.062 106.765 25.194C107.493 24.326 107.857 23.15 107.857 21.666V3.9C106.933 2.892 106.135 2.206 105.463 1.842C104.819 1.45 104.147 1.254 103.447 1.254C103.391 1.254 103.363 1.17 103.363 1.002C103.363 0.834 103.391 0.75 103.447 0.75L105.211 0.791999C105.575 0.819999 106.107 0.833999 106.807 0.833999L109.999 0.791999C110.391 0.764 110.867 0.75 111.427 0.75C111.651 0.75 111.819 0.805999 111.931 0.917998C112.043 1.03 112.239 1.268 112.519 1.632C112.995 2.276 113.331 2.71 113.527 2.934L128.059 19.692V6.126C128.059 4.614 127.751 3.424 127.135 2.556C126.519 1.688 125.665 1.254 124.573 1.254C124.517 1.254 124.489 1.17 124.489 1.002C124.489 0.834 124.517 0.75 124.573 0.75L126.379 0.791999C127.275 0.847999 128.031 0.875998 128.647 0.875998C129.207 0.875998 129.991 0.847999 130.999 0.791999L132.889 0.75Z" fill="#FFB845"/>
<path d="M151.006 24.732C151.118 24.732 151.188 24.802 151.216 24.942C151.272 25.054 151.244 25.138 151.132 25.194L146.806 27.252C146.694 27.308 146.554 27.336 146.386 27.336C145.938 27.336 145.504 27.098 145.084 26.622C144.692 26.146 144.412 25.502 144.244 24.69L142.438 25.95C141.794 26.426 141.192 26.776 140.632 27C140.072 27.196 139.442 27.294 138.742 27.294C137.538 27.294 136.628 27.028 136.012 26.496C135.396 25.964 135.088 25.222 135.088 24.27C135.088 23.514 135.27 22.912 135.634 22.464C135.998 21.988 136.446 21.624 136.978 21.372C137.538 21.092 138.308 20.784 139.288 20.448L140.338 20.07L144.118 18.684V16.29C144.118 14.498 143.964 13.196 143.656 12.384C143.376 11.572 142.886 11.166 142.186 11.166C140.702 11.166 139.862 12.314 139.666 14.61C139.582 15.45 139.33 16.052 138.91 16.416C138.518 16.78 137.958 16.962 137.23 16.962C136.53 16.962 136.012 16.822 135.676 16.542C135.368 16.234 135.214 15.842 135.214 15.366C135.214 14.526 135.704 13.728 136.684 12.972C137.664 12.188 138.84 11.558 140.212 11.082C141.612 10.606 142.844 10.368 143.908 10.368C145.14 10.368 146.134 10.76 146.89 11.544C147.674 12.3 148.066 13.462 148.066 15.03V22.464C148.066 23.276 148.206 23.906 148.486 24.354C148.794 24.802 149.214 25.026 149.746 25.026C150.138 25.026 150.544 24.928 150.964 24.732H151.006ZM144.16 23.976C144.132 23.864 144.118 23.682 144.118 23.43V19.398L142.312 20.238C142.228 20.266 141.948 20.378 141.472 20.574C140.996 20.742 140.576 21.036 140.212 21.456C139.876 21.876 139.708 22.366 139.708 22.926C139.708 23.598 139.918 24.13 140.338 24.522C140.786 24.886 141.29 25.068 141.85 25.068C142.298 25.068 142.76 24.914 143.236 24.606L144.16 23.976Z" fill="white"/>
<path d="M169.662 10.788C169.718 10.788 169.746 10.872 169.746 11.04C169.746 11.208 169.718 11.292 169.662 11.292C168.85 11.292 168.122 11.6 167.478 12.216C166.862 12.832 166.274 13.784 165.714 15.072L160.548 27C160.52 27.14 160.366 27.21 160.086 27.21C159.862 27.21 159.708 27.14 159.624 27L153.198 14.274C152.61 13.042 152.092 12.244 151.644 11.88C151.196 11.488 150.65 11.292 150.006 11.292C149.922 11.292 149.88 11.208 149.88 11.04C149.88 10.872 149.922 10.788 150.006 10.788C150.51 10.788 150.93 10.802 151.266 10.83L154.08 10.872L157.314 10.83C157.79 10.802 158.448 10.788 159.288 10.788C159.372 10.788 159.414 10.872 159.414 11.04C159.414 11.208 159.372 11.292 159.288 11.292C157.664 11.292 156.852 11.614 156.852 12.258C156.852 12.426 156.922 12.65 157.062 12.93L161.766 21.75L164.538 15.03C164.762 14.442 164.874 13.938 164.874 13.518C164.874 12.818 164.636 12.272 164.16 11.88C163.684 11.488 163.026 11.292 162.186 11.292C162.13 11.292 162.102 11.208 162.102 11.04C162.102 10.872 162.13 10.788 162.186 10.788C162.942 10.788 163.516 10.802 163.908 10.83L166.428 10.872L168.108 10.83C168.444 10.802 168.962 10.788 169.662 10.788Z" fill="white"/>
<path d="M186.198 24.732C186.31 24.732 186.38 24.802 186.408 24.942C186.464 25.054 186.436 25.138 186.324 25.194L181.998 27.252C181.886 27.308 181.746 27.336 181.578 27.336C181.13 27.336 180.696 27.098 180.276 26.622C179.884 26.146 179.604 25.502 179.436 24.69L177.63 25.95C176.986 26.426 176.384 26.776 175.824 27C175.264 27.196 174.634 27.294 173.934 27.294C172.73 27.294 171.82 27.028 171.204 26.496C170.588 25.964 170.28 25.222 170.28 24.27C170.28 23.514 170.462 22.912 170.826 22.464C171.19 21.988 171.638 21.624 172.17 21.372C172.73 21.092 173.5 20.784 174.48 20.448L175.53 20.07L179.31 18.684V16.29C179.31 14.498 179.156 13.196 178.848 12.384C178.568 11.572 178.078 11.166 177.378 11.166C175.894 11.166 175.054 12.314 174.858 14.61C174.774 15.45 174.522 16.052 174.102 16.416C173.71 16.78 173.15 16.962 172.422 16.962C171.722 16.962 171.204 16.822 170.868 16.542C170.56 16.234 170.406 15.842 170.406 15.366C170.406 14.526 170.896 13.728 171.876 12.972C172.856 12.188 174.032 11.558 175.404 11.082C176.804 10.606 178.036 10.368 179.1 10.368C180.332 10.368 181.326 10.76 182.082 11.544C182.866 12.3 183.258 13.462 183.258 15.03V22.464C183.258 23.276 183.398 23.906 183.678 24.354C183.986 24.802 184.406 25.026 184.938 25.026C185.33 25.026 185.736 24.928 186.156 24.732H186.198ZM179.352 23.976C179.324 23.864 179.31 23.682 179.31 23.43V19.398L177.504 20.238C177.42 20.266 177.14 20.378 176.664 20.574C176.188 20.742 175.768 21.036 175.404 21.456C175.068 21.876 174.9 22.366 174.9 22.926C174.9 23.598 175.11 24.13 175.53 24.522C175.978 24.886 176.482 25.068 177.042 25.068C177.49 25.068 177.952 24.914 178.428 24.606L179.352 23.976Z" fill="white"/>
<path d="M198.835 10.368C199.479 10.368 200.095 10.606 200.683 11.082C201.299 11.53 201.607 12.076 201.607 12.72C201.607 13.308 201.425 13.798 201.061 14.19C200.697 14.554 200.221 14.736 199.633 14.736C199.213 14.736 198.863 14.652 198.583 14.484C198.331 14.316 198.065 14.064 197.785 13.728C197.533 13.448 197.309 13.252 197.113 13.14C196.945 13 196.735 12.93 196.483 12.93C196.203 12.93 195.895 13.042 195.559 13.266C195.251 13.462 194.761 13.896 194.089 14.568V23.598C194.089 24.718 194.355 25.488 194.887 25.908C195.419 26.3 196.399 26.496 197.827 26.496C197.939 26.496 197.995 26.58 197.995 26.748C197.995 26.916 197.939 27 197.827 27C196.847 27 196.077 26.986 195.517 26.958L192.115 26.916L189.637 26.958C189.217 26.986 188.643 27 187.915 27C187.831 27 187.789 26.916 187.789 26.748C187.789 26.58 187.831 26.496 187.915 26.496C188.783 26.496 189.371 26.3 189.679 25.908C189.987 25.488 190.141 24.718 190.141 23.598V15.702C190.141 14.834 190.029 14.204 189.805 13.812C189.609 13.392 189.287 13.182 188.839 13.182C188.363 13.182 187.691 13.378 186.823 13.77H186.739C186.655 13.77 186.585 13.7 186.529 13.56C186.501 13.42 186.515 13.336 186.571 13.308L192.409 10.452C192.577 10.396 192.675 10.368 192.703 10.368C193.011 10.368 193.291 10.662 193.543 11.25C193.823 11.81 193.991 12.58 194.047 13.56C195.195 12.384 196.133 11.558 196.861 11.082C197.617 10.606 198.275 10.368 198.835 10.368Z" fill="white"/>
<path d="M214.749 10.368C215.393 10.368 216.009 10.606 216.597 11.082C217.213 11.53 217.521 12.076 217.521 12.72C217.521 13.308 217.339 13.798 216.975 14.19C216.611 14.554 216.135 14.736 215.547 14.736C215.127 14.736 214.777 14.652 214.497 14.484C214.245 14.316 213.979 14.064 213.699 13.728C213.447 13.448 213.223 13.252 213.027 13.14C212.859 13 212.649 12.93 212.397 12.93C212.117 12.93 211.809 13.042 211.473 13.266C211.165 13.462 210.675 13.896 210.003 14.568V23.598C210.003 24.718 210.269 25.488 210.801 25.908C211.333 26.3 212.313 26.496 213.741 26.496C213.853 26.496 213.909 26.58 213.909 26.748C213.909 26.916 213.853 27 213.741 27C212.761 27 211.991 26.986 211.431 26.958L208.029 26.916L205.551 26.958C205.131 26.986 204.557 27 203.829 27C203.745 27 203.703 26.916 203.703 26.748C203.703 26.58 203.745 26.496 203.829 26.496C204.697 26.496 205.285 26.3 205.593 25.908C205.901 25.488 206.055 24.718 206.055 23.598V15.702C206.055 14.834 205.943 14.204 205.719 13.812C205.523 13.392 205.201 13.182 204.753 13.182C204.277 13.182 203.605 13.378 202.737 13.77H202.653C202.569 13.77 202.499 13.7 202.443 13.56C202.415 13.42 202.429 13.336 202.485 13.308L208.323 10.452C208.491 10.396 208.589 10.368 208.617 10.368C208.925 10.368 209.205 10.662 209.457 11.25C209.737 11.81 209.905 12.58 209.961 13.56C211.109 12.384 212.047 11.558 212.775 11.082C213.531 10.606 214.189 10.368 214.749 10.368Z" fill="white"/>
<path d="M227.567 27.546C225.831 27.546 224.305 27.154 222.989 26.37C221.701 25.558 220.707 24.48 220.007 23.136C219.307 21.764 218.957 20.28 218.957 18.684C218.957 16.864 219.419 15.324 220.343 14.064C221.267 12.776 222.443 11.824 223.871 11.208C225.299 10.564 226.769 10.242 228.281 10.242C230.017 10.242 231.529 10.648 232.817 11.46C234.105 12.272 235.085 13.35 235.757 14.694C236.457 16.01 236.807 17.424 236.807 18.936C236.807 20.616 236.387 22.114 235.547 23.43C234.707 24.718 233.573 25.726 232.145 26.454C230.745 27.182 229.219 27.546 227.567 27.546ZM228.827 26.664C229.919 26.664 230.745 26.132 231.305 25.068C231.893 23.976 232.187 22.422 232.187 20.406C232.187 18.446 231.935 16.766 231.431 15.366C230.927 13.966 230.269 12.916 229.457 12.216C228.645 11.488 227.777 11.124 226.853 11.124C224.613 11.124 223.493 13.126 223.493 17.13C223.493 19.006 223.731 20.672 224.207 22.128C224.683 23.556 225.327 24.676 226.139 25.488C226.951 26.272 227.847 26.664 228.827 26.664Z" fill="white"/>
</svg>
