<svg width="237" height="28" fill="none" xmlns="http://www.w3.org/2000/svg"><path d="M7.946 23.43c0 .728.056 1.26.168 1.596.112.308.322.518.63.63.336.112.868.168 1.596.168h1.428c2.184 0 4.074-.574 5.67-1.722 1.596-1.176 2.66-2.758 3.192-4.746 0-.056.056-.084.168-.084.056 0 .112.028.168.084.084.028.126.056.126.084-.252 2.772-.378 5.082-.378 6.93 0 .224-.056.392-.168.504-.084.084-.238.126-.462.126H.26c-.056 0-.084-.084-.084-.252 0-.168.028-.252.084-.252.896 0 1.54-.07 1.932-.21.42-.14.7-.406.84-.798.168-.42.252-1.05.252-1.89V4.152c0-.84-.084-1.456-.252-1.848-.14-.392-.42-.658-.84-.798-.42-.168-1.064-.252-1.932-.252-.056 0-.084-.084-.084-.252C.176.834.204.75.26.75l2.142.042C3.69.848 4.754.876 5.594.876c.84 0 1.904-.028 3.192-.084L10.928.75c.084 0 .126.084.126.252 0 .168-.042.252-.126.252-.868 0-1.512.084-1.932.252-.42.14-.7.42-.84.84-.14.392-.21 1.008-.21 1.848V23.43Z" fill="#FFB845"/><path d="M42.845 24.27c.084 0 .154.07.21.21.084.14.084.224 0 .252l-5.796 2.814a.468.468 0 0 1-.21.042c-.28 0-.532-.294-.756-.882-.196-.616-.308-1.442-.336-2.478-1.848 2.184-3.85 3.276-6.006 3.276-1.54 0-2.758-.476-3.654-1.428-.868-.98-1.302-2.254-1.302-3.822V16.08c0-1.82-.434-2.73-1.302-2.73-.308 0-.658.098-1.05.294H22.6c-.112 0-.196-.07-.252-.21-.056-.168-.042-.266.042-.294l5.628-2.688.21-.042c.14 0 .28.07.42.21.168.112.252.224.252.336v9.282c0 3.024 1.162 4.536 3.486 4.536.616 0 1.232-.126 1.848-.378a5.933 5.933 0 0 0 1.722-1.134V16.08c0-1.82-.434-2.73-1.302-2.73-.308 0-.672.098-1.092.294h-.042c-.084 0-.154-.07-.21-.21-.056-.168-.042-.266.042-.294l5.628-2.688a.468.468 0 0 1 .21-.042c.14 0 .28.07.42.21.168.112.252.224.252.336v11.172c0 .952.084 1.624.252 2.016.196.392.504.588.924.588.392 0 .966-.154 1.722-.462h.084ZM52.92 27.504c-1.848 0-3.416-.392-4.704-1.176-1.26-.812-2.212-1.848-2.856-3.108a9.236 9.236 0 0 1-.924-4.032c0-1.764.49-3.304 1.47-4.62a9.484 9.484 0 0 1 3.738-3.066c1.54-.728 3.108-1.092 4.704-1.092 1.344 0 2.548.28 3.612.84 1.092.56 1.638 1.33 1.638 2.31 0 .532-.21.994-.63 1.386-.392.364-.952.546-1.68.546-.672 0-1.204-.168-1.596-.504-.392-.364-.714-.91-.966-1.638-.252-.784-.504-1.316-.756-1.596-.224-.308-.644-.462-1.26-.462-1.204 0-2.17.602-2.898 1.806-.7 1.176-1.05 2.744-1.05 4.704 0 2.324.518 4.186 1.554 5.586 1.036 1.372 2.688 2.058 4.956 2.058.756 0 1.4-.084 1.932-.252.56-.168 1.26-.448 2.1-.84h.042c.084 0 .154.042.21.126.084.084.098.154.042.21-1.036.952-2.072 1.666-3.108 2.142-1.036.448-2.226.672-3.57.672ZM78.45 24.732c.112 0 .182.07.21.21.056.112.028.196-.084.252l-4.326 2.058a.935.935 0 0 1-.42.084c-.448 0-.882-.238-1.302-.714-.392-.476-.672-1.12-.84-1.932l-1.806 1.26c-.644.476-1.246.826-1.806 1.05-.56.196-1.19.294-1.89.294-1.204 0-2.114-.266-2.73-.798-.616-.532-.924-1.274-.924-2.226 0-.756.182-1.358.546-1.806.364-.476.812-.84 1.344-1.092.56-.28 1.33-.588 2.31-.924l1.05-.378 3.78-1.386V16.29c0-1.792-.154-3.094-.462-3.906-.28-.812-.77-1.218-1.47-1.218-1.484 0-2.324 1.148-2.52 3.444-.084.84-.336 1.442-.756 1.806-.392.364-.952.546-1.68.546-.7 0-1.218-.14-1.554-.42-.308-.308-.462-.7-.462-1.176 0-.84.49-1.638 1.47-2.394.98-.784 2.156-1.414 3.528-1.89 1.4-.476 2.632-.714 3.696-.714 1.232 0 2.226.392 2.982 1.176.784.756 1.176 1.918 1.176 3.486v7.434c0 .812.14 1.442.42 1.89.308.448.728.672 1.26.672.392 0 .798-.098 1.218-.294h.042Zm-6.846-.756a2.502 2.502 0 0 1-.042-.546v-4.032l-1.806.84c-.084.028-.364.14-.84.336a2.962 2.962 0 0 0-1.26.882c-.336.42-.504.91-.504 1.47 0 .672.21 1.204.63 1.596.448.364.952.546 1.512.546.448 0 .91-.154 1.386-.462l.924-.63ZM83.485 12.804c0 .812.28 1.512.84 2.1.588.588 1.428 1.204 2.52 1.848 1.064.616 1.848 1.106 2.352 1.47.532.336 1.008.826 1.428 1.47.42.616.63 1.372.63 2.268 0 .952-.238 1.848-.714 2.688-.476.84-1.19 1.526-2.142 2.058-.952.504-2.086.756-3.402.756a8.916 8.916 0 0 1-4.368-1.134c-.168-.168-.252-.336-.252-.504l-.084-4.158c0-.084.07-.126.21-.126.168-.028.266-.014.294.042a8.316 8.316 0 0 0 2.226 3.57c1.036.98 2.086 1.47 3.15 1.47.588 0 1.05-.182 1.386-.546.364-.364.546-.896.546-1.596 0-1.036-.294-1.848-.882-2.436-.588-.616-1.456-1.246-2.604-1.89-.98-.532-1.722-.966-2.226-1.302-.504-.336-.952-.812-1.344-1.428-.392-.616-.588-1.372-.588-2.268 0-1.652.588-2.856 1.764-3.612 1.176-.784 2.618-1.176 4.326-1.176.644 0 1.218.042 1.722.126a8.57 8.57 0 0 1 1.764.504c.252.084.378.238.378.462 0 .7-.014 1.246-.042 1.638l-.042 2.1c0 .084-.084.126-.252.126-.168 0-.252-.042-.252-.126 0-.532-.224-1.106-.672-1.722a5.84 5.84 0 0 0-1.764-1.638c-.7-.448-1.428-.672-2.184-.672-1.148 0-1.722.546-1.722 1.638Z" fill="#fff"/><path d="M132.889.75c.056 0 .084.084.084.252 0 .168-.028.252-.084.252-1.12 0-2.002.448-2.646 1.344-.644.868-.966 2.044-.966 3.528V27.63c0 .084-.07.14-.21.168-.112.028-.196.014-.252-.042L109.117 5.328v16.338c0 1.484.308 2.66.924 3.528.616.868 1.47 1.302 2.562 1.302.056 0 .084.084.084.252 0 .168-.028.252-.084.252-.784 0-1.386-.014-1.806-.042l-2.268-.042-2.604.042c-.476.028-1.162.042-2.058.042-.084 0-.126-.084-.126-.252 0-.168.042-.252.126-.252 1.232 0 2.198-.434 2.898-1.302.728-.868 1.092-2.044 1.092-3.528V3.9c-.924-1.008-1.722-1.694-2.394-2.058-.644-.392-1.316-.588-2.016-.588-.056 0-.084-.084-.084-.252 0-.168.028-.252.084-.252l1.764.042c.364.028.896.042 1.596.042l3.192-.042a20.51 20.51 0 0 1 1.428-.042c.224 0 .392.056.504.168.112.112.308.35.588.714.476.644.812 1.078 1.008 1.302l14.532 16.758V6.126c0-1.512-.308-2.702-.924-3.57-.616-.868-1.47-1.302-2.562-1.302-.056 0-.084-.084-.084-.252 0-.168.028-.252.084-.252l1.806.042c.896.056 1.652.084 2.268.084.56 0 1.344-.028 2.352-.084l1.89-.042Z" fill="#FFB845"/><path d="M151.006 24.732c.112 0 .182.07.21.21.056.112.028.196-.084.252l-4.326 2.058a.935.935 0 0 1-.42.084c-.448 0-.882-.238-1.302-.714-.392-.476-.672-1.12-.84-1.932l-1.806 1.26c-.644.476-1.246.826-1.806 1.05-.56.196-1.19.294-1.89.294-1.204 0-2.114-.266-2.73-.798-.616-.532-.924-1.274-.924-2.226 0-.756.182-1.358.546-1.806.364-.476.812-.84 1.344-1.092.56-.28 1.33-.588 2.31-.924l1.05-.378 3.78-1.386V16.29c0-1.792-.154-3.094-.462-3.906-.28-.812-.77-1.218-1.47-1.218-1.484 0-2.324 1.148-2.52 3.444-.084.84-.336 1.442-.756 1.806-.392.364-.952.546-1.68.546-.7 0-1.218-.14-1.554-.42-.308-.308-.462-.7-.462-1.176 0-.84.49-1.638 1.47-2.394.98-.784 2.156-1.414 3.528-1.89 1.4-.476 2.632-.714 3.696-.714 1.232 0 2.226.392 2.982 1.176.784.756 1.176 1.918 1.176 3.486v7.434c0 .812.14 1.442.42 1.89.308.448.728.672 1.26.672.392 0 .798-.098 1.218-.294h.042Zm-6.846-.756a2.502 2.502 0 0 1-.042-.546v-4.032l-1.806.84c-.084.028-.364.14-.84.336a2.962 2.962 0 0 0-1.26.882c-.336.42-.504.91-.504 1.47 0 .672.21 1.204.63 1.596.448.364.952.546 1.512.546.448 0 .91-.154 1.386-.462l.924-.63ZM169.662 10.788c.056 0 .084.084.084.252 0 .168-.028.252-.084.252-.812 0-1.54.308-2.184.924-.616.616-1.204 1.568-1.764 2.856L160.548 27c-.028.14-.182.21-.462.21-.224 0-.378-.07-.462-.21l-6.426-12.726c-.588-1.232-1.106-2.03-1.554-2.394-.448-.392-.994-.588-1.638-.588-.084 0-.126-.084-.126-.252 0-.168.042-.252.126-.252.504 0 .924.014 1.26.042l2.814.042 3.234-.042a35.677 35.677 0 0 1 1.974-.042c.084 0 .126.084.126.252 0 .168-.042.252-.126.252-1.624 0-2.436.322-2.436.966 0 .168.07.392.21.672l4.704 8.82 2.772-6.72c.224-.588.336-1.092.336-1.512 0-.7-.238-1.246-.714-1.638-.476-.392-1.134-.588-1.974-.588-.056 0-.084-.084-.084-.252 0-.168.028-.252.084-.252.756 0 1.33.014 1.722.042l2.52.042 1.68-.042c.336-.028.854-.042 1.554-.042ZM186.198 24.732c.112 0 .182.07.21.21.056.112.028.196-.084.252l-4.326 2.058a.935.935 0 0 1-.42.084c-.448 0-.882-.238-1.302-.714-.392-.476-.672-1.12-.84-1.932l-1.806 1.26c-.644.476-1.246.826-1.806 1.05-.56.196-1.19.294-1.89.294-1.204 0-2.114-.266-2.73-.798-.616-.532-.924-1.274-.924-2.226 0-.756.182-1.358.546-1.806.364-.476.812-.84 1.344-1.092.56-.28 1.33-.588 2.31-.924l1.05-.378 3.78-1.386V16.29c0-1.792-.154-3.094-.462-3.906-.28-.812-.77-1.218-1.47-1.218-1.484 0-2.324 1.148-2.52 3.444-.084.84-.336 1.442-.756 1.806-.392.364-.952.546-1.68.546-.7 0-1.218-.14-1.554-.42-.308-.308-.462-.7-.462-1.176 0-.84.49-1.638 1.47-2.394.98-.784 2.156-1.414 3.528-1.89 1.4-.476 2.632-.714 3.696-.714 1.232 0 2.226.392 2.982 1.176.784.756 1.176 1.918 1.176 3.486v7.434c0 .812.14 1.442.42 1.89.308.448.728.672 1.26.672.392 0 .798-.098 1.218-.294h.042Zm-6.846-.756a2.502 2.502 0 0 1-.042-.546v-4.032l-1.806.84c-.084.028-.364.14-.84.336a2.962 2.962 0 0 0-1.26.882c-.336.42-.504.91-.504 1.47 0 .672.21 1.204.63 1.596.448.364.952.546 1.512.546.448 0 .91-.154 1.386-.462l.924-.63ZM198.835 10.368c.644 0 1.26.238 1.848.714.616.448.924.994.924 1.638 0 .588-.182 1.078-.546 1.47-.364.364-.84.546-1.428.546-.42 0-.77-.084-1.05-.252-.252-.168-.518-.42-.798-.756-.252-.28-.476-.476-.672-.588a.95.95 0 0 0-.63-.21c-.28 0-.588.112-.924.336-.308.196-.798.63-1.47 1.302v9.03c0 1.12.266 1.89.798 2.31.532.392 1.512.588 2.94.588.112 0 .168.084.168.252 0 .168-.056.252-.168.252-.98 0-1.75-.014-2.31-.042l-3.402-.042-2.478.042c-.42.028-.994.042-1.722.042-.084 0-.126-.084-.126-.252 0-.168.042-.252.126-.252.868 0 1.456-.196 1.764-.588.308-.42.462-1.19.462-2.31v-7.896c0-.868-.112-1.498-.336-1.89-.196-.42-.518-.63-.966-.63-.476 0-1.148.196-2.016.588h-.084c-.084 0-.154-.07-.21-.21-.028-.14-.014-.224.042-.252l5.838-2.856c.168-.056.266-.084.294-.084.308 0 .588.294.84.882.28.56.448 1.33.504 2.31 1.148-1.176 2.086-2.002 2.814-2.478.756-.476 1.414-.714 1.974-.714ZM214.749 10.368c.644 0 1.26.238 1.848.714.616.448.924.994.924 1.638 0 .588-.182 1.078-.546 1.47-.364.364-.84.546-1.428.546-.42 0-.77-.084-1.05-.252-.252-.168-.518-.42-.798-.756-.252-.28-.476-.476-.672-.588a.95.95 0 0 0-.63-.21c-.28 0-.588.112-.924.336-.308.196-.798.63-1.47 1.302v9.03c0 1.12.266 1.89.798 2.31.532.392 1.512.588 2.94.588.112 0 .168.084.168.252 0 .168-.056.252-.168.252-.98 0-1.75-.014-2.31-.042l-3.402-.042-2.478.042c-.42.028-.994.042-1.722.042-.084 0-.126-.084-.126-.252 0-.168.042-.252.126-.252.868 0 1.456-.196 1.764-.588.308-.42.462-1.19.462-2.31v-7.896c0-.868-.112-1.498-.336-1.89-.196-.42-.518-.63-.966-.63-.476 0-1.148.196-2.016.588h-.084c-.084 0-.154-.07-.21-.21-.028-.14-.014-.224.042-.252l5.838-2.856c.168-.056.266-.084.294-.084.308 0 .588.294.84.882.28.56.448 1.33.504 2.31 1.148-1.176 2.086-2.002 2.814-2.478.756-.476 1.414-.714 1.974-.714ZM227.567 27.546c-1.736 0-3.262-.392-4.578-1.176a8.284 8.284 0 0 1-2.982-3.234c-.7-1.372-1.05-2.856-1.05-4.452 0-1.82.462-3.36 1.386-4.62a8.339 8.339 0 0 1 3.528-2.856 10.62 10.62 0 0 1 4.41-.966c1.736 0 3.248.406 4.536 1.218a7.978 7.978 0 0 1 2.94 3.234 8.897 8.897 0 0 1 1.05 4.242c0 1.68-.42 3.178-1.26 4.494-.84 1.288-1.974 2.296-3.402 3.024-1.4.728-2.926 1.092-4.578 1.092Zm1.26-.882c1.092 0 1.918-.532 2.478-1.596.588-1.092.882-2.646.882-4.662 0-1.96-.252-3.64-.756-5.04s-1.162-2.45-1.974-3.15c-.812-.728-1.68-1.092-2.604-1.092-2.24 0-3.36 2.002-3.36 6.006 0 1.876.238 3.542.714 4.998.476 1.428 1.12 2.548 1.932 3.36.812.784 1.708 1.176 2.688 1.176Z" fill="#fff"/></svg>